<?xml version="1.0" encoding="UTF-8"?>
<svg xmlns="http://www.w3.org/2000/svg" xmlns:xlink="http://www.w3.org/1999/xlink" width="500pt" height="500pt" viewBox="0 0 500 500" version="1.1">
<g id="surface1">
<path style=" stroke:none;fill-rule:nonzero;fill:#C7EDE6;fill-opacity:1;" d="M 436.074219 283.550781 C 441.75 272.773438 445 260.523438 445 247.5 C 445 214.394531 424.203125 186.214844 394.996094 175.109375 C 394.996094 175.074219 395 175.039063 395 175 C 395 117.011719 347.988281 70 290 70 C 241.078125 70 200.09375 103.503906 188.433594 148.785156 C 181.054688 146.359375 173.191406 145 165 145 C 126.539063 145 94.886719 173.964844 90.550781 211.261719 C 64.53125 216.765625 45 239.84375 45 267.5 C 45 299.253906 70.746094 325 102.5 325 C 103.386719 325 104.261719 324.941406 105.128906 324.890625 C 105.109375 325.765625 105 326.621094 105 327.5 C 105 384.109375 150.890625 430 207.5 430 C 239.683594 430 268.375 415.140625 287.171875 391.929688 C 298.058594 403.054688 313.199219 410 330 410 C 353.25 410 373.371094 396.75 383.328125 377.410156 C 388.589844 379.085938 394.183594 380 400 380 C 430.375 380 455 355.375 455 325 C 455 308.445313 447.648438 293.636719 436.074219 283.550781 Z "/>
<path style=" stroke:none;fill-rule:nonzero;fill:#FFFFFF;fill-opacity:1;" d="M 77.5 255 L 27.5 255 C 26.121094 255 25 253.878906 25 252.5 C 25 251.121094 26.121094 250 27.5 250 L 77.5 250 C 78.878906 250 80 251.121094 80 252.5 C 80 253.878906 78.886719 255 77.5 255 Z "/>
<path style=" stroke:none;fill-rule:nonzero;fill:#FFFFFF;fill-opacity:1;" d="M 92.5 255 L 87.5 255 C 86.121094 255 85 253.878906 85 252.5 C 85 251.121094 86.121094 250 87.5 250 L 92.5 250 C 93.878906 250 95 251.121094 95 252.5 C 95 253.878906 93.886719 255 92.5 255 Z "/>
<path style=" stroke:none;fill-rule:nonzero;fill:#FFFFFF;fill-opacity:1;" d="M 117.453125 265 L 72.5 265 C 71.121094 265 70 263.878906 70 262.5 C 70 261.121094 71.121094 260 72.5 260 L 117.453125 260 C 118.835938 260 119.953125 261.121094 119.953125 262.5 C 119.953125 263.878906 118.835938 265 117.453125 265 Z "/>
<path style=" stroke:none;fill-rule:nonzero;fill:#FFFFFF;fill-opacity:1;" d="M 62.5 265 L 57.5 265 C 56.121094 265 55 263.878906 55 262.5 C 55 261.121094 56.121094 260 57.5 260 L 62.5 260 C 63.878906 260 65 261.121094 65 262.5 C 65 263.878906 63.886719 265 62.5 265 Z "/>
<path style=" stroke:none;fill-rule:nonzero;fill:#FFFFFF;fill-opacity:1;" d="M 47.5 265 L 37.5 265 C 36.121094 265 35 263.878906 35 262.5 C 35 261.121094 36.121094 260 37.5 260 L 47.5 260 C 48.878906 260 50 261.121094 50 262.5 C 50 263.878906 48.886719 265 47.5 265 Z "/>
<path style=" stroke:none;fill-rule:nonzero;fill:#FFFFFF;fill-opacity:1;" d="M 77.5 275 L 67.5 275 C 66.121094 275 65 273.878906 65 272.5 C 65 271.121094 66.121094 270 67.5 270 L 77.5 270 C 78.878906 270 80 271.121094 80 272.5 C 80 273.878906 78.878906 275 77.5 275 Z "/>
<path style=" stroke:none;fill-rule:nonzero;fill:#FFFFFF;fill-opacity:1;" d="M 92.5 230 C 91.613281 230 88.386719 230 87.5 230 C 86.121094 230 85 231.121094 85 232.5 C 85 233.878906 86.121094 235 87.5 235 C 88.386719 235 91.613281 235 92.5 235 C 93.878906 235 95 233.878906 95 232.5 C 95 231.121094 93.878906 230 92.5 230 Z "/>
<path style=" stroke:none;fill-rule:nonzero;fill:#FFFFFF;fill-opacity:1;" d="M 92.5 240 C 91.613281 240 68.386719 240 67.5 240 C 66.121094 240 65 241.121094 65 242.5 C 65 243.878906 66.121094 245 67.5 245 C 68.386719 245 91.613281 245 92.5 245 C 93.878906 245 95 243.878906 95 242.5 C 95 241.121094 93.878906 240 92.5 240 Z "/>
<path style=" stroke:none;fill-rule:nonzero;fill:#FFFFFF;fill-opacity:1;" d="M 117.5 250 C 116.613281 250 103.386719 250 102.5 250 C 101.121094 250 100 251.121094 100 252.5 C 100 253.878906 101.121094 255 102.5 255 C 103.386719 255 116.613281 255 117.5 255 C 118.878906 255 120 253.878906 120 252.5 C 120 251.121094 118.878906 250 117.5 250 Z "/>
<path style=" stroke:none;fill-rule:nonzero;fill:#FFFFFF;fill-opacity:1;" d="M 362.5 120 L 312.5 120 C 311.121094 120 310 118.878906 310 117.5 C 310 116.121094 311.121094 115 312.5 115 L 362.5 115 C 363.878906 115 365 116.121094 365 117.5 C 365 118.878906 363.878906 120 362.5 120 Z "/>
<path style=" stroke:none;fill-rule:nonzero;fill:#FFFFFF;fill-opacity:1;" d="M 382.5 120 L 372.5 120 C 371.121094 120 370 118.878906 370 117.5 C 370 116.121094 371.121094 115 372.5 115 L 382.5 115 C 383.878906 115 385 116.121094 385 117.5 C 385 118.878906 383.878906 120 382.5 120 Z "/>
<path style=" stroke:none;fill-rule:nonzero;fill:#FFFFFF;fill-opacity:1;" d="M 407.5 130 L 357.5 130 C 356.121094 130 355 128.878906 355 127.5 C 355 126.121094 356.121094 125 357.5 125 L 407.5 125 C 408.878906 125 410 126.121094 410 127.5 C 410 128.878906 408.886719 130 407.5 130 Z "/>
<path style=" stroke:none;fill-rule:nonzero;fill:#FFFFFF;fill-opacity:1;" d="M 347.5 130 L 342.5 130 C 341.121094 130 340 128.878906 340 127.5 C 340 126.121094 341.121094 125 342.5 125 L 347.5 125 C 348.878906 125 350 126.121094 350 127.5 C 350 128.878906 348.878906 130 347.5 130 Z "/>
<path style=" stroke:none;fill-rule:nonzero;fill:#FFFFFF;fill-opacity:1;" d="M 332.351563 130 L 322.5 130 C 321.121094 130 320 128.878906 320 127.5 C 320 126.121094 321.121094 125 322.5 125 L 332.351563 125 C 333.730469 125 334.851563 126.121094 334.851563 127.5 C 334.851563 128.878906 333.730469 130 332.351563 130 Z "/>
<path style=" stroke:none;fill-rule:nonzero;fill:#FFFFFF;fill-opacity:1;" d="M 377.5 110 L 352.5 110 C 351.121094 110 350 108.878906 350 107.5 C 350 106.121094 351.121094 105 352.5 105 L 377.5 105 C 378.878906 105 380 106.121094 380 107.5 C 380 108.878906 378.886719 110 377.5 110 Z "/>
<path style=" stroke:none;fill-rule:nonzero;fill:#FFFFFF;fill-opacity:1;" d="M 362.5 140 L 352.5 140 C 351.121094 140 350 138.878906 350 137.5 C 350 136.121094 351.121094 135 352.5 135 L 362.5 135 C 363.878906 135 365 136.121094 365 137.5 C 365 138.878906 363.878906 140 362.5 140 Z "/>
<path style=" stroke:none;fill-rule:nonzero;fill:#FDFCEF;fill-opacity:1;" d="M 172.5 317.5 L 192.5 317.5 L 192.5 377.5 L 172.5 377.5 Z "/>
<path style=" stroke:none;fill-rule:nonzero;fill:#FDFCEF;fill-opacity:1;" d="M 317.5 317.5 L 337.5 317.5 L 337.5 377.5 L 317.5 377.5 Z "/>
<path style=" stroke:none;fill-rule:nonzero;fill:#FDFCEF;fill-opacity:1;" d="M 192.5 352.5 L 192.5 337.5 L 317.5 337.5 L 317.5 352.5 Z "/>
<path style=" stroke:none;fill-rule:nonzero;fill:#472B29;fill-opacity:1;" d="M 320 355 L 190 355 L 190 335 L 320 335 Z M 195 350 L 315 350 L 315 340 L 195 340 Z "/>
<path style=" stroke:none;fill-rule:nonzero;fill:#EE3E54;fill-opacity:1;" d="M 307.5 175 C 307.5 203.996094 283.996094 227.5 255 227.5 C 226.003906 227.5 202.5 203.996094 202.5 175 C 202.5 146.003906 226.003906 122.5 255 122.5 C 283.996094 122.5 307.5 146.003906 307.5 175 Z "/>
<path style=" stroke:none;fill-rule:nonzero;fill:#FFFFFF;fill-opacity:1;" d="M 282.5 182.5 L 227.5 182.5 L 227.5 167.5 L 282.5 167.5 Z "/>
<path style=" stroke:none;fill-rule:nonzero;fill:#FDFCEF;fill-opacity:1;" d="M 140 227.398438 L 370 227.398438 L 370 317.035156 L 140 317.035156 Z "/>
<path style=" stroke:none;fill-rule:nonzero;fill:#472B29;fill-opacity:1;" d="M 192.5 380 L 172.5 380 C 171.121094 380 170 378.878906 170 377.5 L 170 315 L 195 315 L 195 377.5 C 195 378.878906 193.878906 380 192.5 380 Z M 175 375 L 190 375 L 190 320 L 175 320 Z "/>
<path style=" stroke:none;fill-rule:nonzero;fill:#472B29;fill-opacity:1;" d="M 337.5 380 L 317.5 380 C 316.121094 380 315 378.878906 315 377.5 L 315 315 L 340 315 L 340 377.5 C 340 378.878906 338.878906 380 337.5 380 Z M 320 375 L 335 375 L 335 320 L 320 320 Z "/>
<path style=" stroke:none;fill-rule:nonzero;fill:#FBCD59;fill-opacity:1;" d="M 250 317.5 L 297.5 227.5 L 257.5 227.5 L 210 317.5 Z "/>
<path style=" stroke:none;fill-rule:nonzero;fill:#472B29;fill-opacity:1;" d="M 211.25 320 C 210.855469 320 210.453125 319.90625 210.085938 319.710938 C 208.863281 319.066406 208.394531 317.550781 209.039063 316.328125 L 256.539063 226.328125 C 257.191406 225.105469 258.703125 224.648438 259.921875 225.285156 C 261.140625 225.929688 261.609375 227.445313 260.964844 228.664063 L 213.464844 318.664063 C 213.015625 319.515625 212.144531 320 211.25 320 Z "/>
<path style=" stroke:none;fill-rule:nonzero;fill:#472B29;fill-opacity:1;" d="M 251.25 320 C 250.855469 320 250.453125 319.90625 250.085938 319.710938 C 248.863281 319.066406 248.394531 317.550781 249.039063 316.328125 L 296.539063 226.328125 C 297.191406 225.105469 298.710938 224.648438 299.921875 225.285156 C 301.140625 225.929688 301.609375 227.445313 300.964844 228.664063 L 253.464844 318.664063 C 253.015625 319.515625 252.144531 320 251.25 320 Z "/>
<path style=" stroke:none;fill-rule:nonzero;fill:#FBCD59;fill-opacity:1;" d="M 168.75 317.5 L 216.25 227.5 L 176.25 227.5 L 137.5 300.921875 L 137.5 317.5 Z "/>
<path style=" stroke:none;fill-rule:nonzero;fill:#472B29;fill-opacity:1;" d="M 139.238281 302.5 C 138.84375 302.5 138.445313 302.40625 138.074219 302.210938 C 136.855469 301.566406 136.386719 300.050781 137.03125 298.828125 L 175.289063 226.328125 C 175.941406 225.105469 177.464844 224.648438 178.671875 225.285156 C 179.890625 225.929688 180.359375 227.445313 179.714844 228.664063 L 141.453125 301.164063 C 141 302.015625 140.128906 302.5 139.238281 302.5 Z "/>
<path style=" stroke:none;fill-rule:nonzero;fill:#472B29;fill-opacity:1;" d="M 145 316.773438 C 144.800781 316.773438 144.605469 316.730469 144.421875 316.628906 C 143.804688 316.308594 143.574219 315.554688 143.898438 314.945313 L 177.160156 251.921875 C 177.480469 251.304688 178.246094 251.066406 178.84375 251.398438 C 179.460938 251.71875 179.691406 252.476563 179.363281 253.085938 L 146.105469 316.109375 C 145.886719 316.535156 145.449219 316.773438 145 316.773438 Z "/>
<path style=" stroke:none;fill-rule:nonzero;fill:#472B29;fill-opacity:1;" d="M 157.5 318.75 C 157.300781 318.75 157.105469 318.703125 156.921875 318.605469 C 156.304688 318.285156 156.074219 317.53125 156.398438 316.921875 L 194.660156 244.421875 C 194.976563 243.804688 195.746094 243.566406 196.34375 243.898438 C 196.960938 244.21875 197.191406 244.976563 196.863281 245.585938 L 158.605469 318.085938 C 158.386719 318.503906 157.949219 318.75 157.5 318.75 Z "/>
<path style=" stroke:none;fill-rule:nonzero;fill:#472B29;fill-opacity:1;" d="M 170 320 C 169.605469 320 169.203125 319.90625 168.835938 319.710938 C 167.613281 319.066406 167.144531 317.550781 167.789063 316.328125 L 215.289063 226.328125 C 215.941406 225.105469 217.453125 224.648438 218.671875 225.285156 C 219.890625 225.929688 220.359375 227.445313 219.714844 228.664063 L 172.214844 318.664063 C 171.765625 319.515625 170.894531 320 170 320 Z "/>
<path style=" stroke:none;fill-rule:nonzero;fill:#FBCD59;fill-opacity:1;" d="M 331.25 317.5 L 372.15625 240 L 372.5 227.5 L 338.75 227.5 L 291.25 317.5 Z "/>
<path style=" stroke:none;fill-rule:nonzero;fill:#472B29;fill-opacity:1;" d="M 292.5 320 C 292.105469 320 291.703125 319.90625 291.335938 319.710938 C 290.113281 319.066406 289.644531 317.550781 290.289063 316.328125 L 337.789063 226.328125 C 338.441406 225.105469 339.960938 224.648438 341.171875 225.285156 C 342.390625 225.929688 342.859375 227.445313 342.214844 228.664063 L 294.714844 318.664063 C 294.265625 319.515625 293.394531 320 292.5 320 Z "/>
<path style=" stroke:none;fill-rule:nonzero;fill:#472B29;fill-opacity:1;" d="M 332.5 320 C 332.105469 320 331.703125 319.90625 331.335938 319.710938 C 330.113281 319.066406 329.644531 317.550781 330.289063 316.328125 L 368.550781 243.828125 C 369.195313 242.605469 370.71875 242.144531 371.929688 242.785156 C 373.148438 243.429688 373.621094 244.945313 372.976563 246.164063 L 334.714844 318.664063 C 334.265625 319.515625 333.394531 320 332.5 320 Z "/>
<path style=" stroke:none;fill-rule:nonzero;fill:#472B29;fill-opacity:1;" d="M 282.5 185 L 227.5 185 C 226.121094 185 225 183.878906 225 182.5 L 225 167.5 C 225 166.121094 226.121094 165 227.5 165 L 282.5 165 C 283.878906 165 285 166.121094 285 167.5 L 285 182.5 C 285 183.878906 283.878906 185 282.5 185 Z M 230 180 L 280 180 L 280 170 L 230 170 Z "/>
<path style=" stroke:none;fill-rule:nonzero;fill:#472B29;fill-opacity:1;" d="M 255 127 C 281.464844 127 303 148.535156 303 175 C 303 201.464844 281.464844 223 255 223 C 228.535156 223 207 201.464844 207 175 C 207 148.535156 228.535156 127 255 127 M 255 120 C 224.625 120 200 144.625 200 175 C 200 205.375 224.625 230 255 230 C 285.375 230 310 205.375 310 175 C 310 144.625 285.375 120 255 120 Z "/>
<path style=" stroke:none;fill-rule:nonzero;fill:#472B29;fill-opacity:1;" d="M 368 232 L 368 313 L 142 313 L 142 232 L 368 232 M 375 225 L 140 225 C 137.238281 225 135 227.238281 135 230 L 135 315 C 135 317.761719 137.238281 320 140 320 L 370 320 C 372.761719 320 375 317.761719 375 315 Z "/>
<path style=" stroke:none;fill-rule:nonzero;fill:#FDFCEF;fill-opacity:1;" d="M 414.375 282.5 C 414.375 282.5 432.574219 282.5 445 282.5 C 457.425781 282.5 467.5 272.425781 467.5 260 C 467.5 248.335938 458.589844 238.855469 447.226563 237.726563 C 447.335938 236.820313 447.5 235.933594 447.5 235 C 447.5 222.574219 437.425781 212.5 425 212.5 C 417.808594 212.5 411.484375 215.929688 407.363281 221.179688 C 406.664063 208 395.855469 197.5 382.5 197.5 C 368.695313 197.5 357.5 208.695313 357.5 222.5 C 357.5 224.730469 357.886719 226.851563 358.433594 228.910156 C 355.226563 225.023438 350.429688 222.5 345 222.5 C 336.09375 222.5 328.828125 229.175781 327.726563 237.773438 C 326.820313 237.664063 325.933594 237.5 325 237.5 C 312.574219 237.5 302.5 247.574219 302.5 260 C 302.5 272.425781 312.574219 282.5 325 282.5 C 337.425781 282.5 372.5 282.5 372.5 282.5 L 399.375 282.5 L 399.375 285 L 414.375 285 Z "/>
<path style=" stroke:none;fill-rule:nonzero;fill:#472B29;fill-opacity:1;" d="M 382.5 195 C 367.335938 195 355 207.335938 355 222.5 C 355 222.578125 355 222.65625 355 222.734375 C 351.988281 220.960938 348.550781 220 345 220 C 335.84375 220 327.945313 226.304688 325.710938 235.023438 C 325.476563 235.011719 325.238281 235 325 235 C 311.214844 235 300 246.214844 300 260 C 300 273.785156 311.214844 285 325 285 L 399.375 285 C 400.753906 285 401.875 283.878906 401.875 282.5 C 401.875 281.121094 400.753906 280 399.375 280 L 325 280 C 313.96875 280 305 271.03125 305 260 C 305 248.96875 313.96875 240 325 240 C 325.585938 240 326.148438 240.085938 326.714844 240.160156 L 327.421875 240.253906 C 327.523438 240.269531 327.625 240.273438 327.730469 240.273438 C 328.960938 240.273438 330.039063 239.351563 330.203125 238.089844 C 331.160156 230.625 337.519531 225 345 225 C 349.425781 225 353.613281 227.003906 356.503906 230.5 C 356.996094 231.089844 357.710938 231.410156 358.433594 231.410156 C 358.824219 231.410156 359.214844 231.320313 359.574219 231.128906 C 360.621094 230.59375 361.144531 229.398438 360.84375 228.265625 C 360.269531 226.089844 360 224.261719 360 222.5 C 360 210.09375 370.09375 200 382.5 200 C 394.40625 200 404.234375 209.359375 404.871094 221.316406 C 404.925781 222.355469 405.621094 223.25 406.613281 223.566406 C 406.863281 223.644531 407.121094 223.683594 407.375 223.683594 C 408.125 223.683594 408.855469 223.339844 409.335938 222.726563 C 413.191406 217.816406 418.894531 215 425 215 C 436.03125 215 445 223.96875 445 235 C 445 235.585938 444.914063 236.148438 444.839844 236.714844 L 444.746094 237.421875 C 444.664063 238.089844 444.855469 238.761719 445.273438 239.285156 C 445.695313 239.808594 446.308594 240.144531 446.976563 240.210938 C 457.253906 241.234375 465 249.746094 465 260 C 465 271.03125 456.03125 280 445 280 L 414.375 280 C 412.996094 280 411.875 281.121094 411.875 282.5 C 411.875 283.878906 412.996094 285 414.375 285 L 445 285 C 458.785156 285 470 273.785156 470 260 C 470 248.015625 461.554688 237.933594 449.984375 235.613281 C 449.996094 235.410156 450 235.203125 450 235 C 450 221.214844 438.785156 210 425 210 C 419.121094 210 413.535156 212.078125 409.085938 215.820313 C 406.09375 203.800781 395.273438 195 382.5 195 Z "/>
<path style=" stroke:none;fill-rule:nonzero;fill:#472B29;fill-opacity:1;" d="M 375 230 C 367.984375 230 361.953125 234.996094 360.433594 241.703125 C 358.601563 240.59375 356.503906 240 354.375 240 C 348.363281 240 343.386719 244.484375 342.609375 250.339844 C 341.59375 250.109375 340.628906 250 339.691406 250 C 332.046875 250 325.636719 256 325.101563 263.660156 C 325.050781 264.351563 325.570313 264.949219 326.253906 265 C 326.285156 265 326.316406 265 326.34375 265 C 326.996094 265 327.546875 264.496094 327.589844 263.839844 C 328.035156 257.484375 333.34375 252.5 339.683594 252.5 C 340.828125 252.5 342.035156 252.710938 343.375 253.136719 C 343.484375 253.171875 343.601563 253.183594 343.710938 253.183594 C 343.984375 253.183594 344.261719 253.085938 344.488281 252.914063 C 344.808594 252.683594 345 252.273438 345 251.875 C 345 246.703125 349.203125 242.5 354.375 242.5 C 356.609375 242.5 358.800781 243.339844 360.53125 244.863281 C 360.765625 245.070313 361.058594 245.179688 361.355469 245.179688 C 361.515625 245.179688 361.671875 245.148438 361.820313 245.085938 C 362.261719 244.910156 362.558594 244.5 362.59375 244.023438 C 363.113281 237.558594 368.558594 232.5 375 232.5 C 376.039063 232.5 377.125 232.671875 378.410156 233.035156 C 378.523438 233.070313 378.644531 233.085938 378.761719 233.085938 C 379.304688 233.085938 379.796875 232.71875 379.953125 232.175781 C 380.144531 231.511719 379.761719 230.820313 379.09375 230.628906 C 377.585938 230.199219 376.28125 230 375 230 Z "/>
<path style=" stroke:none;fill-rule:nonzero;fill:#472B29;fill-opacity:1;" d="M 444.414063 237.5 C 437.785156 237.5 431.875 241.984375 430.046875 248.410156 C 429.855469 249.074219 430.238281 249.765625 430.90625 249.953125 C 431.023438 249.984375 431.140625 250 431.25 250 C 431.796875 250 432.296875 249.640625 432.449219 249.089844 C 433.976563 243.738281 438.894531 240 444.414063 240 C 445 240 445.566406 240.070313 446.125 240.144531 C 446.183594 240.15625 446.238281 240.160156 446.300781 240.160156 C 446.90625 240.160156 447.445313 239.699219 447.53125 239.074219 C 447.625 238.390625 447.144531 237.761719 446.460938 237.671875 C 445.789063 237.578125 445.109375 237.5 444.414063 237.5 Z "/>
<path style=" stroke:none;fill-rule:nonzero;fill:#472B29;fill-opacity:1;" d="M 251.738281 293.75 C 251.539063 293.75 251.34375 293.703125 251.160156 293.605469 C 250.546875 293.285156 250.316406 292.53125 250.640625 291.921875 L 283.898438 228.894531 C 284.214844 228.285156 284.988281 228.046875 285.585938 228.375 C 286.199219 228.695313 286.429688 229.449219 286.105469 230.058594 L 252.84375 293.085938 C 252.621094 293.503906 252.191406 293.75 251.738281 293.75 Z "/>
<path style=" stroke:none;fill-rule:nonzero;fill:#472B29;fill-opacity:1;" d="M 234.238281 301.25 C 234.039063 301.25 233.84375 301.203125 233.660156 301.105469 C 233.046875 300.785156 232.816406 300.03125 233.140625 299.421875 L 271.398438 226.921875 C 271.714844 226.308594 272.488281 226.070313 273.085938 226.398438 C 273.699219 226.71875 273.929688 227.476563 273.605469 228.085938 L 235.34375 300.585938 C 235.121094 301.003906 234.691406 301.25 234.238281 301.25 Z "/>
<path style=" stroke:none;fill-rule:nonzero;fill:#FDFCEF;fill-opacity:1;" d="M 127.5 362.5 C 127.5 362.5 135.335938 362.5 145 362.5 C 154.664063 362.5 162.5 354.664063 162.5 345 C 162.5 336.09375 155.824219 328.828125 147.226563 327.726563 C 147.363281 326.828125 147.5 325.933594 147.5 325 C 147.5 315.335938 139.664063 307.5 130 307.5 C 124.839844 307.5 120.25 309.773438 117.050781 313.324219 C 115.128906 304.285156 107.113281 297.5 97.5 297.5 C 86.453125 297.5 77.5 306.453125 77.5 317.5 C 77.5 318.453125 77.648438 319.371094 77.78125 320.289063 C 75.640625 318.570313 72.960938 317.5 70 317.5 C 63.859375 317.5 58.773438 321.933594 57.726563 327.773438 C 56.828125 327.636719 55.933594 327.5 55 327.5 C 45.335938 327.5 37.5 335.335938 37.5 345 C 37.5 354.664063 45.335938 362.5 55 362.5 C 64.664063 362.5 92.5 362.5 92.5 362.5 L 92.5 365 L 127.5 365 Z "/>
<path style=" stroke:none;fill-rule:nonzero;fill:#472B29;fill-opacity:1;" d="M 136.25 340 C 135.558594 340 135 339.441406 135 338.75 C 135 332.636719 139.976563 327.660156 146.089844 327.660156 C 146.261719 327.703125 149.773438 327.65625 152.308594 328.339844 C 152.976563 328.519531 153.371094 329.203125 153.191406 329.871094 C 153.011719 330.539063 152.324219 330.933594 151.660156 330.75 C 149.441406 330.148438 146.160156 330.148438 146.09375 330.160156 C 141.355469 330.160156 137.5 334.015625 137.5 338.75 C 137.5 339.441406 136.941406 340 136.25 340 Z "/>
<path style=" stroke:none;fill-rule:nonzero;fill:#472B29;fill-opacity:1;" d="M 105 362.5 C 105 363.878906 103.878906 365 102.5 365 C 101.121094 365 100 363.878906 100 362.5 C 100 361.121094 101.121094 360 102.5 360 C 103.878906 360 105 361.121094 105 362.5 Z "/>
<path style=" stroke:none;fill-rule:nonzero;fill:#472B29;fill-opacity:1;" d="M 145 365 L 127.5 365 C 126.121094 365 125 363.878906 125 362.5 C 125 361.121094 126.121094 360 127.5 360 L 145 360 C 153.269531 360 160 353.269531 160 345 C 160 337.519531 154.375 331.160156 146.910156 330.203125 C 146.238281 330.113281 145.636719 329.765625 145.230469 329.226563 C 144.824219 328.683594 144.65625 328.003906 144.761719 327.339844 C 144.875 326.570313 145 325.800781 145 325 C 145 316.730469 138.269531 310 130 310 C 125.75 310 121.808594 311.773438 118.90625 315 C 118.28125 315.695313 117.300781 315.988281 116.40625 315.738281 C 115.496094 315.496094 114.800781 314.765625 114.605469 313.84375 C 112.898438 305.824219 105.703125 300 97.5 300 C 87.851563 300 80 307.851563 80 317.5 C 80 318.214844 80.105469 318.898438 80.203125 319.589844 C 80.351563 320.605469 79.890625 321.78125 78.996094 322.289063 C 78.101563 322.800781 77.015625 322.878906 76.214844 322.238281 C 74.390625 320.773438 72.246094 320 70 320 C 65.171875 320 61.039063 323.453125 60.183594 328.21875 C 59.945313 329.554688 58.703125 330.449219 57.339844 330.246094 C 56.570313 330.125 55.800781 330 55 330 C 46.730469 330 40 336.730469 40 345 C 40 353.269531 46.730469 360 55 360 L 92.5 360 C 93.878906 360 95 361.121094 95 362.5 C 95 363.878906 93.878906 365 92.5 365 L 55 365 C 43.96875 365 35 356.03125 35 345 C 35 333.96875 43.96875 325 55 325 C 55.296875 325 55.578125 325.011719 55.871094 325.03125 C 57.941406 319.101563 63.554688 315 70 315 C 71.746094 315 73.445313 315.304688 75.054688 315.898438 C 75.878906 304.234375 85.628906 295 97.5 295 C 106.65625 295 114.828125 300.636719 118.265625 308.871094 C 121.664063 306.378906 125.773438 305 130 305 C 141.03125 305 150 313.96875 150 325 C 150 325.238281 149.996094 325.476563 149.980469 325.710938 C 158.695313 327.949219 165 335.84375 165 345 C 165 356.03125 156.03125 365 145 365 Z "/>
<path style=" stroke:none;fill-rule:nonzero;fill:#472B29;fill-opacity:1;" d="M 117.5 360 C 116.703125 360 113.296875 360 112.5 360 C 111.121094 360 110 361.121094 110 362.5 C 110 363.878906 111.121094 365 112.5 365 C 113.296875 365 116.703125 365 117.5 365 C 118.878906 365 120 363.878906 120 362.5 C 120 361.121094 118.878906 360 117.5 360 Z "/>
</g>
</svg>
