<?xml version="1.0" encoding="UTF-8"?>
<svg xmlns="http://www.w3.org/2000/svg" xmlns:xlink="http://www.w3.org/1999/xlink" width="500pt" height="500pt" viewBox="0 0 500 500" version="1.1">
<defs>
<clipPath id="clip1">
  <path d="M 255 163 L 305 163 L 305 241 L 255 241 Z "/>
</clipPath>
<clipPath id="clip2">
  <path d="M 323.828125 226.160156 C 323.828125 215.363281 323.84375 203.945313 323.828125 193.148438 C 323.824219 190.484375 323.671875 190.019531 321.285156 189.90625 C 319.609375 189.824219 317.375 189.589844 315.703125 189.550781 C 308.21875 189.371094 300.996094 188.011719 293.808594 185.898438 C 279.835938 181.796875 267.734375 175.425781 257.25 164.730469 C 256.65625 164.121094 255.925781 163.339844 255.324219 163.226563 L 255.324219 348.953125 C 256.214844 348.496094 276.054688 332.65625 285.363281 325.273438 C 292.84375 319.34375 300.40625 313.519531 306.34375 305.765625 C 317.800781 290.824219 323.59375 273.980469 323.886719 254.765625 C 324.03125 245.144531 323.828125 235.785156 323.828125 226.160156 Z "/>
</clipPath>
<clipPath id="clip3">
  <path d="M 255 163 L 323 163 L 323 280 L 255 280 Z "/>
</clipPath>
<clipPath id="clip4">
  <path d="M 323.828125 226.160156 C 323.828125 215.363281 323.84375 203.945313 323.828125 193.148438 C 323.824219 190.484375 323.671875 190.019531 321.285156 189.90625 C 319.609375 189.824219 317.375 189.589844 315.703125 189.550781 C 308.21875 189.371094 300.996094 188.011719 293.808594 185.898438 C 279.835938 181.796875 267.734375 175.425781 257.25 164.730469 C 256.65625 164.121094 255.925781 163.339844 255.324219 163.226563 L 255.324219 348.953125 C 256.214844 348.496094 276.054688 332.65625 285.363281 325.273438 C 292.84375 319.34375 300.40625 313.519531 306.34375 305.765625 C 317.800781 290.824219 323.59375 273.980469 323.886719 254.765625 C 324.03125 245.144531 323.828125 235.785156 323.828125 226.160156 Z "/>
</clipPath>
<clipPath id="clip5">
  <path d="M 279 197 L 324 197 L 324 250 L 279 250 Z "/>
</clipPath>
<clipPath id="clip6">
  <path d="M 323.828125 226.160156 C 323.828125 215.363281 323.84375 203.945313 323.828125 193.148438 C 323.824219 190.484375 323.671875 190.019531 321.285156 189.90625 C 319.609375 189.824219 317.375 189.589844 315.703125 189.550781 C 308.21875 189.371094 300.996094 188.011719 293.808594 185.898438 C 279.835938 181.796875 267.734375 175.425781 257.25 164.730469 C 256.65625 164.121094 255.925781 163.339844 255.324219 163.226563 L 255.324219 348.953125 C 256.214844 348.496094 276.054688 332.65625 285.363281 325.273438 C 292.84375 319.34375 300.40625 313.519531 306.34375 305.765625 C 317.800781 290.824219 323.59375 273.980469 323.886719 254.765625 C 324.03125 245.144531 323.828125 235.785156 323.828125 226.160156 Z "/>
</clipPath>
<clipPath id="clip7">
  <path d="M 184 248 L 224 248 L 224 300 L 184 300 Z "/>
</clipPath>
<clipPath id="clip8">
  <path d="M 184.675781 223.988281 C 184.675781 213.710938 184.660156 202.84375 184.675781 192.570313 C 184.679688 190.035156 185.351563 188.851563 187.730469 188.738281 C 189.398438 188.664063 191.066406 188.484375 192.734375 188.449219 C 200.210938 188.28125 207.523438 187.046875 214.699219 185.035156 C 228.65625 181.128906 240.675781 175.699219 251.140625 165.519531 C 251.734375 164.941406 252.464844 164.199219 253.058594 164.085938 L 252.519531 340.886719 C 251.636719 340.449219 232.644531 325.976563 222.886719 318.699219 C 215.378906 313.105469 208.164063 307.558594 202.234375 300.179688 C 190.800781 285.960938 184.558594 270.253906 184.613281 251.230469 C 184.644531 242.058594 184.675781 233.15625 184.675781 223.988281 Z "/>
</clipPath>
<clipPath id="clip9">
  <path d="M 184 244 L 254 244 L 254 341 L 184 341 Z "/>
</clipPath>
<clipPath id="clip10">
  <path d="M 184.675781 223.988281 C 184.675781 213.710938 184.660156 202.84375 184.675781 192.570313 C 184.679688 190.035156 185.351563 188.851563 187.730469 188.738281 C 189.398438 188.664063 191.066406 188.484375 192.734375 188.449219 C 200.210938 188.28125 207.523438 187.046875 214.699219 185.035156 C 228.65625 181.128906 240.675781 175.699219 251.140625 165.519531 C 251.734375 164.941406 252.464844 164.199219 253.058594 164.085938 L 252.519531 340.886719 C 251.636719 340.449219 232.644531 325.976563 222.886719 318.699219 C 215.378906 313.105469 208.164063 307.558594 202.234375 300.179688 C 190.800781 285.960938 184.558594 270.253906 184.613281 251.230469 C 184.644531 242.058594 184.675781 233.15625 184.675781 223.988281 Z "/>
</clipPath>
<clipPath id="clip11">
  <path d="M 184 274 L 254 274 L 254 341 L 184 341 Z "/>
</clipPath>
<clipPath id="clip12">
  <path d="M 184.675781 223.988281 C 184.675781 213.710938 184.660156 202.84375 184.675781 192.570313 C 184.679688 190.035156 185.351563 188.851563 187.730469 188.738281 C 189.398438 188.664063 191.066406 188.484375 192.734375 188.449219 C 200.210938 188.28125 207.523438 187.046875 214.699219 185.035156 C 228.65625 181.128906 240.675781 175.699219 251.140625 165.519531 C 251.734375 164.941406 252.464844 164.199219 253.058594 164.085938 L 252.519531 340.886719 C 251.636719 340.449219 232.644531 325.976563 222.886719 318.699219 C 215.378906 313.105469 208.164063 307.558594 202.234375 300.179688 C 190.800781 285.960938 184.558594 270.253906 184.613281 251.230469 C 184.644531 242.058594 184.675781 233.15625 184.675781 223.988281 Z "/>
</clipPath>
</defs>
<g id="surface1">
<path style=" stroke:none;fill-rule:nonzero;fill:#C7EDE6;fill-opacity:1;" d="M 443.519531 279.628906 C 445.019531 276.550781 446.351563 273.308594 447.5 269.914063 C 460.664063 231.066406 440.753906 184.523438 398.835938 173.289063 C 394.300781 116.375 354.300781 77.328125 309.128906 70.664063 C 257.425781 63.039063 210.058594 95.886719 194.300781 148.089844 C 175.304688 141.359375 156.796875 142.179688 139.351563 152.375 C 131.433594 156.035156 124.195313 161.433594 117.699219 168.539063 C 108.164063 178.96875 101.964844 192.136719 99.441406 206.015625 C 95.699219 206.605469 92.023438 207.195313 88.558594 208.433594 C 68.359375 215.679688 55.613281 230.589844 52.121094 253.050781 C 49.945313 267.035156 54.335938 280.984375 56.785156 286.621094 C 66.460938 308.894531 88.894531 321.519531 111.691406 318.179688 C 112.824219 318.015625 114.476563 318.523438 115.449219 319.34375 C 116.65625 354.945313 133.941406 386.429688 159.871094 404.414063 C 201.476563 433.273438 255.003906 424.386719 288.773438 384.808594 C 303.246094 399.609375 320.464844 406.800781 340.695313 404.191406 C 360.808594 401.59375 376.429688 390.496094 387.824219 372.445313 C 393.089844 373.859375 398.078125 375.898438 403.238281 376.464844 C 423.449219 378.675781 439.859375 370.640625 451.898438 352.464844 C 456.511719 345.511719 460.863281 336.496094 460.863281 320.695313 C 460.871094 304.414063 454.40625 289.578125 443.519531 279.628906 Z "/>
<path style=" stroke:none;fill-rule:nonzero;fill:#FFFFFF;fill-opacity:1;" d="M 91.84375 239.808594 L 41.691406 239.808594 C 40.308594 239.808594 39.191406 238.691406 39.191406 237.308594 C 39.191406 235.929688 40.308594 234.808594 41.691406 234.808594 L 91.839844 234.808594 C 93.21875 234.808594 94.339844 235.929688 94.339844 237.308594 C 94.339844 238.691406 93.226563 239.808594 91.84375 239.808594 Z "/>
<path style=" stroke:none;fill-rule:nonzero;fill:#FFFFFF;fill-opacity:1;" d="M 106.25 239.808594 L 99.019531 239.808594 C 97.640625 239.808594 96.519531 238.691406 96.519531 237.308594 C 96.519531 235.929688 97.640625 234.808594 99.019531 234.808594 L 106.25 234.808594 C 107.628906 234.808594 108.75 235.929688 108.75 237.308594 C 108.75 238.691406 107.628906 239.808594 106.25 239.808594 Z "/>
<path style=" stroke:none;fill-rule:nonzero;fill:#FFFFFF;fill-opacity:1;" d="M 126.519531 239.808594 L 113.789063 239.808594 C 112.410156 239.808594 111.289063 238.691406 111.289063 237.308594 C 111.289063 235.929688 112.410156 234.808594 113.789063 234.808594 L 126.519531 234.808594 C 127.898438 234.808594 129.019531 235.929688 129.019531 237.308594 C 129.019531 238.691406 127.898438 239.808594 126.519531 239.808594 Z "/>
<path style=" stroke:none;fill-rule:nonzero;fill:#FFFFFF;fill-opacity:1;" d="M 126.519531 249.136719 L 78.441406 249.136719 C 77.058594 249.136719 75.941406 248.015625 75.941406 246.636719 C 75.941406 245.253906 77.058594 244.136719 78.441406 244.136719 L 126.519531 244.136719 C 127.898438 244.136719 129.019531 245.253906 129.019531 246.636719 C 129.019531 248.015625 127.898438 249.136719 126.519531 249.136719 Z "/>
<path style=" stroke:none;fill-rule:nonzero;fill:#FFFFFF;fill-opacity:1;" d="M 69.78125 249.136719 L 66.878906 249.136719 C 65.5 249.136719 64.378906 248.015625 64.378906 246.636719 C 64.378906 245.253906 65.5 244.136719 66.878906 244.136719 L 69.78125 244.136719 C 71.160156 244.136719 72.28125 245.253906 72.28125 246.636719 C 72.28125 248.015625 71.164063 249.136719 69.78125 249.136719 Z "/>
<path style=" stroke:none;fill-rule:nonzero;fill:#FFFFFF;fill-opacity:1;" d="M 57.894531 249.136719 L 50.613281 249.136719 C 49.234375 249.136719 48.113281 248.015625 48.113281 246.636719 C 48.113281 245.253906 49.234375 244.136719 50.613281 244.136719 L 57.894531 244.136719 C 59.273438 244.136719 60.394531 245.253906 60.394531 246.636719 C 60.394531 248.015625 59.28125 249.136719 57.894531 249.136719 Z "/>
<path style=" stroke:none;fill-rule:nonzero;fill:#FFFFFF;fill-opacity:1;" d="M 103.574219 230.484375 L 78.441406 230.484375 C 77.058594 230.484375 75.941406 229.363281 75.941406 227.984375 C 75.941406 226.605469 77.058594 225.484375 78.441406 225.484375 L 103.574219 225.484375 C 104.953125 225.484375 106.074219 226.605469 106.074219 227.984375 C 106.074219 229.363281 104.960938 230.484375 103.574219 230.484375 Z "/>
<path style=" stroke:none;fill-rule:nonzero;fill:#FFFFFF;fill-opacity:1;" d="M 103.574219 221.160156 L 97.289063 221.160156 C 95.910156 221.160156 94.789063 220.039063 94.789063 218.660156 C 94.789063 217.28125 95.910156 216.160156 97.289063 216.160156 L 103.574219 216.160156 C 104.953125 216.160156 106.074219 217.28125 106.074219 218.660156 C 106.074219 220.039063 104.960938 221.160156 103.574219 221.160156 Z "/>
<path style=" stroke:none;fill-rule:nonzero;fill:#FFFFFF;fill-opacity:1;" d="M 87.234375 258.460938 L 78.441406 258.460938 C 77.058594 258.460938 75.941406 257.339844 75.941406 255.960938 C 75.941406 254.578125 77.058594 253.460938 78.441406 253.460938 L 87.234375 253.460938 C 88.613281 253.460938 89.734375 254.578125 89.734375 255.960938 C 89.734375 257.339844 88.613281 258.460938 87.234375 258.460938 Z "/>
<path style=" stroke:none;fill-rule:nonzero;fill:#FFFFFF;fill-opacity:1;" d="M 371.96875 128.203125 L 321.820313 128.203125 C 320.441406 128.203125 319.320313 127.085938 319.320313 125.703125 C 319.320313 124.324219 320.441406 123.203125 321.820313 123.203125 L 371.96875 123.203125 C 373.351563 123.203125 374.46875 124.324219 374.46875 125.703125 C 374.46875 127.085938 373.355469 128.203125 371.96875 128.203125 Z "/>
<path style=" stroke:none;fill-rule:nonzero;fill:#FFFFFF;fill-opacity:1;" d="M 386.378906 128.203125 L 379.148438 128.203125 C 377.769531 128.203125 376.648438 127.085938 376.648438 125.703125 C 376.648438 124.324219 377.769531 123.203125 379.148438 123.203125 L 386.378906 123.203125 C 387.761719 123.203125 388.878906 124.324219 388.878906 125.703125 C 388.878906 127.085938 387.761719 128.203125 386.378906 128.203125 Z "/>
<path style=" stroke:none;fill-rule:nonzero;fill:#FFFFFF;fill-opacity:1;" d="M 406.648438 128.203125 L 393.925781 128.203125 C 392.546875 128.203125 391.425781 127.085938 391.425781 125.703125 C 391.425781 124.324219 392.546875 123.203125 393.925781 123.203125 L 406.648438 123.203125 C 408.03125 123.203125 409.148438 124.324219 409.148438 125.703125 C 409.148438 127.085938 408.03125 128.203125 406.648438 128.203125 Z "/>
<path style=" stroke:none;fill-rule:nonzero;fill:#FFFFFF;fill-opacity:1;" d="M 406.648438 137.53125 L 358.566406 137.53125 C 357.183594 137.53125 356.066406 136.410156 356.066406 135.03125 C 356.066406 133.648438 357.183594 132.53125 358.566406 132.53125 L 406.648438 132.53125 C 408.03125 132.53125 409.148438 133.648438 409.148438 135.03125 C 409.148438 136.410156 408.035156 137.53125 406.648438 137.53125 Z "/>
<path style=" stroke:none;fill-rule:nonzero;fill:#FFFFFF;fill-opacity:1;" d="M 349.910156 137.53125 L 347.011719 137.53125 C 345.628906 137.53125 344.511719 136.410156 344.511719 135.03125 C 344.511719 133.648438 345.628906 132.53125 347.011719 132.53125 L 349.910156 132.53125 C 351.289063 132.53125 352.410156 133.648438 352.410156 135.03125 C 352.410156 136.410156 351.296875 137.53125 349.910156 137.53125 Z "/>
<path style=" stroke:none;fill-rule:nonzero;fill:#FFFFFF;fill-opacity:1;" d="M 338.023438 137.53125 L 330.746094 137.53125 C 329.363281 137.53125 328.246094 136.410156 328.246094 135.03125 C 328.246094 133.648438 329.363281 132.53125 330.746094 132.53125 L 338.023438 132.53125 C 339.40625 132.53125 340.523438 133.648438 340.523438 135.03125 C 340.523438 136.410156 339.410156 137.53125 338.023438 137.53125 Z "/>
<path style=" stroke:none;fill-rule:nonzero;fill:#FFFFFF;fill-opacity:1;" d="M 383.703125 118.886719 L 358.570313 118.886719 C 357.191406 118.886719 356.070313 117.765625 356.070313 116.386719 C 356.070313 115.003906 357.191406 113.886719 358.570313 113.886719 L 383.703125 113.886719 C 385.085938 113.886719 386.203125 115.003906 386.203125 116.386719 C 386.203125 117.765625 385.085938 118.886719 383.703125 118.886719 Z "/>
<path style=" stroke:none;fill-rule:nonzero;fill:#FFFFFF;fill-opacity:1;" d="M 383.703125 109.558594 L 377.421875 109.558594 C 376.039063 109.558594 374.921875 108.441406 374.921875 107.058594 C 374.921875 105.679688 376.039063 104.558594 377.421875 104.558594 L 383.703125 104.558594 C 385.085938 104.558594 386.203125 105.679688 386.203125 107.058594 C 386.203125 108.441406 385.085938 109.558594 383.703125 109.558594 Z "/>
<path style=" stroke:none;fill-rule:nonzero;fill:#FFFFFF;fill-opacity:1;" d="M 367.363281 146.859375 L 358.570313 146.859375 C 357.191406 146.859375 356.070313 145.738281 356.070313 144.359375 C 356.070313 142.980469 357.191406 141.859375 358.570313 141.859375 L 367.363281 141.859375 C 368.746094 141.859375 369.863281 142.980469 369.863281 144.359375 C 369.863281 145.738281 368.746094 146.859375 367.363281 146.859375 Z "/>
<path style=" stroke:none;fill-rule:nonzero;fill:#FDFCEF;fill-opacity:1;" d="M 356.828125 207.871094 C 365.378906 207.871094 372.800781 207.871094 372.90625 207.871094 C 382.484375 207.871094 390.25 200.269531 390.25 190.890625 C 390.25 182.710938 384.339844 175.886719 376.46875 174.273438 C 376.558594 173.558594 376.625 172.835938 376.625 172.09375 C 376.625 162.386719 368.578125 154.511719 358.660156 154.511719 C 352.800781 154.511719 347.613281 157.265625 344.335938 161.515625 C 343.496094 150.703125 333.628906 142.363281 322.085938 143.746094 C 313.644531 144.753906 306.664063 151.140625 305.109375 159.324219 C 304.609375 161.949219 304.664063 164.496094 305.160156 166.886719 C 302.890625 164.5 299.671875 163 296.078125 163 C 289.515625 163 284.15625 168.003906 283.730469 174.324219 C 280.75 173.679688 277.503906 173.71875 274.089844 174.976563 C 267.558594 177.375 262.910156 183.390625 262.640625 190.210938 C 262.253906 199.894531 270.160156 207.871094 279.976563 207.871094 C 280.71875 207.871094 283.339844 207.871094 283.945313 207.871094 L 319.964844 207.871094 M 327.421875 207.871094 L 329.054688 207.871094 "/>
<path style=" stroke:none;fill-rule:nonzero;fill:#472B29;fill-opacity:1;" d="M 372.898438 210.371094 L 356.824219 210.371094 C 355.445313 210.371094 354.324219 209.25 354.324219 207.871094 C 354.324219 206.488281 355.445313 205.371094 356.824219 205.371094 L 372.898438 205.371094 C 381.085938 205.371094 387.746094 198.875 387.746094 190.890625 C 387.746094 184.078125 382.789063 178.121094 375.964844 176.726563 C 374.683594 176.460938 373.820313 175.261719 373.984375 173.960938 C 374.066406 173.34375 374.113281 172.726563 374.113281 172.089844 C 374.113281 163.773438 367.179688 157.003906 358.648438 157.003906 C 353.761719 157.003906 349.265625 159.199219 346.304688 163.039063 C 345.671875 163.859375 344.601563 164.191406 343.609375 163.910156 C 342.621094 163.609375 341.914063 162.738281 341.835938 161.710938 C 341.480469 157.144531 339.300781 153.003906 335.699219 150.046875 C 331.984375 147 327.269531 145.65625 322.375 146.226563 C 314.996094 147.109375 308.90625 152.683594 307.558594 159.785156 C 307.140625 162 307.15625 164.21875 307.605469 166.375 C 307.828125 167.46875 307.304688 168.578125 306.316406 169.101563 C 305.320313 169.613281 304.109375 169.410156 303.339844 168.601563 C 301.441406 166.601563 298.859375 165.496094 296.078125 165.496094 C 290.890625 165.496094 286.566406 169.445313 286.226563 174.484375 C 286.175781 175.214844 285.816406 175.878906 285.234375 176.316406 C 284.65625 176.75 283.90625 176.925781 283.203125 176.761719 C 280.355469 176.15625 277.65625 176.320313 274.953125 177.316406 C 269.316406 179.390625 265.371094 184.609375 265.140625 190.308594 C 264.984375 194.214844 266.40625 197.933594 269.140625 200.785156 C 271.980469 203.738281 275.828125 205.363281 279.976563 205.363281 L 319.964844 205.363281 C 321.34375 205.363281 322.464844 206.484375 322.464844 207.863281 C 322.464844 209.246094 321.34375 210.363281 319.964844 210.363281 L 279.976563 210.363281 C 274.535156 210.363281 269.269531 208.136719 265.535156 204.246094 C 261.851563 200.410156 259.933594 195.390625 260.144531 190.109375 C 260.453125 182.414063 265.710938 175.390625 273.230469 172.621094 C 275.976563 171.613281 278.816406 171.238281 281.671875 171.480469 C 283.328125 165.140625 289.203125 160.496094 296.078125 160.496094 C 298.234375 160.496094 300.351563 160.964844 302.285156 161.839844 C 302.339844 160.84375 302.460938 159.851563 302.648438 158.851563 C 304.398438 149.636719 312.265625 142.398438 321.785156 141.261719 C 328.023438 140.480469 334.09375 142.261719 338.875 146.175781 C 342.214844 148.914063 344.609375 152.445313 345.871094 156.410156 C 349.460938 153.570313 353.921875 152 358.660156 152 C 369.945313 152 379.125 161.011719 379.125 172.085938 C 379.125 172.183594 379.125 172.285156 379.125 172.386719 C 387.144531 174.984375 392.761719 182.445313 392.761719 190.886719 C 392.75 201.636719 383.84375 210.371094 372.898438 210.371094 Z M 329.050781 210.371094 L 327.414063 210.371094 C 326.035156 210.371094 324.914063 209.25 324.914063 207.871094 C 324.914063 206.488281 326.035156 205.371094 327.414063 205.371094 L 329.050781 205.371094 C 330.429688 205.371094 331.550781 206.488281 331.550781 207.871094 C 331.550781 209.25 330.433594 210.371094 329.050781 210.371094 Z "/>
<path style=" stroke:none;fill-rule:nonzero;fill:#472B29;fill-opacity:1;" d="M 365.148438 183.90625 C 365.058594 183.90625 364.96875 183.894531 364.875 183.875 C 364.199219 183.726563 363.78125 183.054688 363.929688 182.378906 C 364.101563 181.628906 364.359375 180.886719 364.710938 180.183594 C 367.480469 174.574219 375.125 172.488281 381.761719 175.558594 C 382.386719 175.851563 382.660156 176.589844 382.371094 177.214844 C 382.078125 177.84375 381.335938 178.109375 380.710938 177.824219 C 375.304688 175.339844 369.125 176.886719 366.949219 181.285156 C 366.691406 181.808594 366.496094 182.363281 366.371094 182.925781 C 366.234375 183.511719 365.71875 183.90625 365.148438 183.90625 Z "/>
<path style=" stroke:none;fill-rule:nonzero;fill:#472B29;fill-opacity:1;" d="M 341.726563 210.371094 L 336.699219 210.371094 C 335.320313 210.371094 334.199219 209.25 334.199219 207.871094 C 334.199219 206.488281 335.320313 205.371094 336.699219 205.371094 L 341.726563 205.371094 C 343.105469 205.371094 344.226563 206.488281 344.226563 207.871094 C 344.226563 209.25 343.105469 210.371094 341.726563 210.371094 Z "/>
<path style=" stroke:none;fill-rule:nonzero;fill:#CBC9BC;fill-opacity:1;" d="M 343.769531 215.730469 C 343.769531 227.585938 343.925781 239.445313 343.734375 251.296875 C 343.355469 274.964844 335.25 295.828125 320.488281 314.230469 C 312.828125 323.78125 303.09375 330.949219 293.453125 338.253906 C 281.460938 347.34375 269.5 356.488281 257.523438 365.605469 C 254.800781 367.679688 253.304688 367.699219 250.648438 365.675781 C 234.871094 353.625 218.953125 341.738281 203.34375 329.476563 C 183.710938 314.046875 171.535156 293.875 166.273438 269.464844 C 164.234375 259.984375 164.296875 250.398438 164.304688 240.800781 C 164.328125 219.328125 164.328125 197.863281 164.339844 176.394531 C 164.339844 172.140625 165.121094 171.394531 169.351563 171.296875 C 194.546875 170.691406 218.070313 164.523438 238.949219 149.953125 C 243.195313 146.988281 247.023438 143.410156 250.953125 140.011719 C 253.136719 138.125 255.066406 137.984375 257.050781 139.921875 C 270.558594 153.09375 286.773438 161.433594 304.785156 166.488281 C 314.046875 169.089844 323.484375 170.683594 333.136719 170.910156 C 335.289063 170.960938 337.441406 171.183594 339.601563 171.285156 C 342.675781 171.425781 343.796875 172.558594 343.800781 175.835938 C 343.820313 189.136719 343.808594 202.429688 343.808594 215.730469 C 343.796875 215.730469 343.78125 215.730469 343.769531 215.730469 Z "/>
<path style=" stroke:none;fill-rule:nonzero;fill:#472B29;fill-opacity:1;" d="M 254.023438 370.683594 C 252.246094 370.683594 250.46875 369.945313 248.523438 368.460938 C 243.765625 364.824219 238.996094 361.210938 234.230469 357.589844 C 223.355469 349.34375 212.109375 340.820313 201.183594 332.234375 C 181.238281 316.558594 168.34375 295.691406 162.859375 270.210938 C 160.785156 260.578125 160.800781 250.859375 160.808594 241.453125 L 160.84375 176.398438 C 160.851563 170.273438 163.136719 167.949219 169.269531 167.796875 C 195.753906 167.160156 217.894531 160.386719 236.949219 147.078125 C 240.121094 144.875 243.023438 142.316406 246.101563 139.609375 L 248.671875 137.363281 C 252.300781 134.21875 256.25 134.234375 259.5 137.414063 C 271.828125 149.433594 286.953125 157.84375 305.738281 163.125 C 315.289063 165.804688 324.28125 167.203125 333.226563 167.40625 C 334.523438 167.433594 335.828125 167.523438 337.128906 167.621094 C 338.011719 167.683594 338.890625 167.746094 339.765625 167.785156 C 344.765625 168.015625 347.296875 170.71875 347.304688 175.828125 C 347.320313 185.628906 347.316406 195.429688 347.316406 205.230469 L 347.316406 215.730469 C 347.316406 215.90625 347.300781 216.074219 347.273438 216.246094 L 347.304688 226.820313 C 347.339844 235 347.375 243.175781 347.238281 251.351563 C 346.859375 275.140625 338.78125 297.03125 323.226563 316.425781 C 315.671875 325.84375 306.175781 333.023438 296.988281 339.976563 L 295.570313 341.050781 C 287.304688 347.316406 279.054688 353.605469 270.808594 359.894531 L 259.648438 368.398438 C 257.640625 369.925781 255.828125 370.683594 254.023438 370.683594 Z M 167.898438 174.890625 C 167.871094 175.195313 167.839844 175.664063 167.839844 176.398438 L 167.804688 241.464844 C 167.796875 250.914063 167.785156 259.839844 169.699219 268.734375 C 174.835938 292.585938 186.878906 312.09375 205.511719 326.730469 C 216.390625 335.28125 227.605469 343.785156 238.460938 352.019531 C 243.234375 355.644531 248.015625 359.261719 252.773438 362.898438 C 253.714844 363.621094 254.054688 363.683594 254.066406 363.691406 C 254.035156 363.679688 254.394531 363.601563 255.40625 362.828125 L 266.566406 354.328125 C 274.816406 348.035156 283.070313 341.738281 291.339844 335.476563 L 292.765625 334.394531 C 302.015625 327.398438 310.75 320.785156 317.765625 312.046875 C 332.324219 293.890625 339.886719 273.433594 340.238281 251.246094 C 340.363281 243.113281 340.335938 234.984375 340.300781 226.851563 L 340.269531 215.730469 C 340.269531 215.550781 340.285156 215.378906 340.308594 215.203125 L 340.308594 205.234375 C 340.308594 195.441406 340.316406 185.640625 340.300781 175.84375 C 340.300781 175.328125 340.265625 175.015625 340.230469 174.824219 C 340.121094 174.863281 339.851563 174.796875 339.441406 174.78125 C 338.5 174.734375 337.566406 174.675781 336.625 174.605469 C 335.433594 174.519531 334.25 174.433594 333.058594 174.410156 C 323.523438 174.191406 313.96875 172.703125 303.84375 169.863281 C 283.90625 164.265625 267.800781 155.289063 254.609375 142.429688 C 254.339844 142.164063 254.171875 142.070313 254.109375 142.039063 C 254.09375 142.074219 253.789063 142.199219 253.25 142.664063 L 250.726563 144.871094 C 247.640625 147.585938 244.445313 150.390625 240.953125 152.828125 C 220.738281 166.941406 197.34375 174.128906 169.441406 174.804688 C 168.691406 174.808594 168.203125 174.851563 167.898438 174.890625 Z "/>
<path style=" stroke:none;fill-rule:nonzero;fill:#F1BC19;fill-opacity:1;" d="M 325.441406 223.316406 C 325.441406 232.75 325.566406 242.183594 325.414063 251.613281 C 325.113281 270.445313 318.664063 287.050781 306.921875 301.691406 C 300.824219 309.285156 293.078125 314.996094 285.410156 320.804688 C 275.863281 328.035156 266.351563 335.308594 256.824219 342.566406 C 254.65625 344.214844 253.464844 344.230469 251.355469 342.621094 C 238.800781 333.03125 226.140625 323.578125 213.71875 313.820313 C 198.09375 301.546875 188.410156 285.496094 184.230469 266.074219 C 182.605469 258.535156 182.65625 250.910156 182.660156 243.269531 C 182.679688 226.191406 182.679688 209.105469 182.683594 192.023438 C 182.683594 188.640625 183.304688 188.046875 186.671875 187.964844 C 206.714844 187.484375 225.429688 182.578125 242.046875 170.984375 C 245.425781 168.625 248.46875 165.773438 251.59375 163.074219 C 253.328125 161.574219 254.863281 161.464844 256.445313 163 C 267.195313 173.480469 280.09375 180.121094 294.425781 184.140625 C 301.789063 186.210938 309.304688 187.480469 316.980469 187.65625 C 318.695313 187.695313 320.40625 187.875 322.121094 187.953125 C 324.566406 188.066406 325.453125 188.96875 325.460938 191.574219 C 325.480469 202.15625 325.464844 212.734375 325.464844 223.316406 C 325.460938 223.316406 325.449219 223.316406 325.441406 223.316406 Z "/>
<path style=" stroke:none;fill-rule:nonzero;fill:#472B29;fill-opacity:1;" d="M 254.03125 345.699219 C 252.808594 345.699219 251.59375 345.175781 250.210938 344.113281 C 246.371094 341.183594 242.523438 338.269531 238.679688 335.351563 C 229.929688 328.714844 221.183594 322.078125 212.550781 315.296875 C 196.855469 302.960938 186.703125 286.53125 182.386719 266.464844 C 180.753906 258.890625 180.765625 251.195313 180.773438 243.753906 L 180.800781 192.019531 C 180.800781 187.636719 182.214844 186.191406 186.613281 186.078125 C 207.871094 185.570313 225.648438 180.128906 240.964844 169.441406 C 243.53125 167.648438 245.976563 165.5 248.339844 163.421875 L 250.363281 161.648438 C 253.773438 158.710938 256.453125 160.390625 257.75 161.648438 C 267.679688 171.335938 279.839844 178.09375 294.929688 182.324219 C 302.601563 184.480469 309.824219 185.605469 317.023438 185.769531 C 318.070313 185.796875 319.109375 185.871094 320.15625 185.941406 C 320.839844 185.996094 321.523438 186.046875 322.214844 186.070313 C 325.703125 186.230469 327.328125 187.976563 327.339844 191.558594 L 327.351563 214.839844 L 327.351563 223.304688 C 327.351563 223.414063 327.339844 223.523438 327.320313 223.628906 L 327.34375 232.09375 C 327.371094 238.609375 327.398438 245.113281 327.296875 251.625 C 326.996094 270.339844 320.636719 287.574219 308.390625 302.84375 C 302.453125 310.238281 294.949219 315.921875 287.695313 321.414063 L 286.550781 322.285156 C 280.328125 326.996094 274.128906 331.726563 267.925781 336.453125 L 257.964844 344.046875 C 256.519531 345.15625 255.269531 345.699219 254.03125 345.699219 Z M 254.15625 163.769531 C 253.824219 163.769531 253.421875 163.96875 252.816406 164.488281 L 250.816406 166.246094 C 248.375 168.394531 245.851563 170.613281 243.109375 172.523438 C 227.171875 183.648438 208.71875 189.308594 186.703125 189.839844 C 185.195313 189.878906 184.820313 190.023438 184.726563 190.089844 C 184.710938 190.136719 184.550781 190.488281 184.550781 192.03125 L 184.523438 243.769531 C 184.515625 251.015625 184.503906 258.503906 186.050781 265.683594 C 190.179688 284.875 199.875 300.578125 214.871094 312.355469 C 223.484375 319.125 232.214844 325.75 240.945313 332.371094 C 244.796875 335.289063 248.644531 338.210938 252.484375 341.144531 C 253.859375 342.195313 254.128906 342.265625 255.683594 341.078125 L 265.640625 333.496094 C 271.84375 328.765625 278.050781 324.03125 284.273438 319.320313 L 285.425781 318.449219 C 292.5 313.09375 299.808594 307.554688 305.453125 300.523438 C 317.171875 285.914063 323.25 269.453125 323.535156 251.589844 C 323.640625 245.105469 323.613281 238.621094 323.585938 232.128906 L 323.558594 223.320313 C 323.558594 223.210938 323.570313 223.09375 323.589844 222.988281 L 323.589844 214.855469 L 323.578125 191.585938 C 323.578125 189.90625 323.398438 189.894531 322.03125 189.835938 C 321.308594 189.796875 320.59375 189.746094 319.878906 189.699219 C 318.898438 189.625 317.914063 189.554688 316.929688 189.535156 C 309.410156 189.363281 301.878906 188.183594 293.910156 185.949219 C 278.203125 181.546875 265.519531 174.480469 255.128906 164.351563 C 254.785156 164.003906 254.515625 163.769531 254.15625 163.769531 Z "/>
<path style=" stroke:none;fill-rule:nonzero;fill:#5A5C66;fill-opacity:1;" d="M 323.824219 193.429688 C 323.835938 190.039063 323.625 190.015625 321.28125 189.90625 C 319.636719 189.824219 317.339844 189.589844 315.699219 189.550781 C 308.351563 189.375 301.15625 188.121094 294.101563 186.070313 C 280.378906 182.089844 268.023438 175.519531 257.730469 165.144531 C 256.925781 164.335938 256.136719 164.019531 255.320313 164.09375 L 255.320313 249.753906 L 323.796875 249.753906 C 323.875 241.453125 323.804688 233.148438 323.804688 224.851563 L 323.835938 224.851563 C 323.828125 214.375 323.796875 203.90625 323.824219 193.429688 Z "/>
<path style=" stroke:none;fill-rule:nonzero;fill:#5A5C66;fill-opacity:1;" d="M 255.136719 249.753906 L 184.566406 249.753906 C 184.613281 255.476563 184.875 261.175781 186.121094 266.828125 C 190.300781 285.773438 200.410156 301.410156 216.03125 313.386719 C 228.449219 322.90625 240.691406 332.144531 253.25 341.496094 C 253.960938 342.023438 254.558594 342.304688 255.136719 342.476563 Z "/>
<g clip-path="url(#clip1)" clip-rule="nonzero">
<g clip-path="url(#clip2)" clip-rule="nonzero">
<path style=" stroke:none;fill-rule:nonzero;fill:#44454C;fill-opacity:1;" d="M 201.84375 241 L 189.523438 228.109375 L 292.308594 120.566406 L 304.628906 133.453125 Z "/>
</g>
</g>
<g clip-path="url(#clip3)" clip-rule="nonzero">
<g clip-path="url(#clip4)" clip-rule="nonzero">
<path style=" stroke:none;fill-rule:nonzero;fill:#44454C;fill-opacity:1;" d="M 248.035156 250.105469 L 322.753906 171.925781 L 310.433594 159.035156 L 207.648438 266.574219 L 219.96875 279.464844 L 247.886719 250.261719 C 247.929688 250.203125 247.984375 250.15625 248.035156 250.105469 Z "/>
</g>
</g>
<g clip-path="url(#clip5)" clip-rule="nonzero">
<g clip-path="url(#clip6)" clip-rule="nonzero">
<path style=" stroke:none;fill-rule:nonzero;fill:#44454C;fill-opacity:1;" d="M 303.65625 249.335938 L 340.878906 210.390625 L 328.558594 197.5 L 279.015625 249.335938 Z "/>
</g>
</g>
<path style=" stroke:none;fill-rule:nonzero;fill:#472B29;fill-opacity:1;" d="M 254.070313 345.066406 C 253.378906 345.066406 252.820313 344.503906 252.820313 343.816406 L 252.820313 165.191406 C 252.820313 164.5 253.378906 163.941406 254.070313 163.941406 C 254.761719 163.941406 255.320313 164.5 255.320313 165.191406 L 255.320313 343.820313 C 255.320313 344.503906 254.761719 345.066406 254.070313 345.066406 Z "/>
<g clip-path="url(#clip7)" clip-rule="nonzero">
<g clip-path="url(#clip8)" clip-rule="nonzero">
<path style=" stroke:none;fill-rule:nonzero;fill:#44454C;fill-opacity:1;" d="M 199.605469 248.90625 L 174.460938 274.488281 L 174.460938 299.273438 L 223.964844 248.90625 Z "/>
</g>
</g>
<g clip-path="url(#clip9)" clip-rule="nonzero">
<g clip-path="url(#clip10)" clip-rule="nonzero">
<path style=" stroke:none;fill-rule:nonzero;fill:#44454C;fill-opacity:1;" d="M 263.433594 244.585938 C 264.476563 246.179688 263.789063 248.90625 261.320313 248.90625 L 253.871094 248.90625 L 159.164063 345.253906 L 171.34375 357.644531 L 272.953125 254.265625 Z "/>
</g>
</g>
<g clip-path="url(#clip11)" clip-rule="nonzero">
<g clip-path="url(#clip12)" clip-rule="nonzero">
<path style=" stroke:none;fill-rule:nonzero;fill:#44454C;fill-opacity:1;" d="M 288.835938 274.21875 C 289.875 275.816406 289.191406 278.539063 286.71875 278.539063 L 279.269531 278.539063 L 184.566406 374.890625 L 196.746094 387.28125 L 298.355469 283.898438 Z "/>
</g>
</g>
<path style=" stroke:none;fill-rule:nonzero;fill:#472B29;fill-opacity:1;" d="M 324.023438 251.003906 L 182.648438 251.003906 C 181.960938 251.003906 181.398438 250.445313 181.398438 249.753906 C 181.398438 249.066406 181.960938 248.503906 182.648438 248.503906 L 324.019531 248.503906 C 324.710938 248.503906 325.269531 249.066406 325.269531 249.753906 C 325.269531 250.445313 324.714844 251.003906 324.023438 251.003906 Z "/>
<path style=" stroke:none;fill-rule:nonzero;fill:#A2B3CB;fill-opacity:1;" d="M 394.324219 294.855469 L 394.324219 267.59375 C 394.324219 252.65625 379.996094 240.808594 365.324219 240.808594 C 350.625 240.808594 335.238281 252.921875 335.238281 267.863281 L 335.238281 294.855469 L 345.664063 294.855469 L 345.664063 268.210938 C 345.664063 259.339844 355.855469 252.179688 364.320313 252.179688 C 372.765625 252.179688 382.160156 259.195313 382.160156 268.050781 L 382.160156 294.859375 L 394.324219 294.859375 Z "/>
<path style=" stroke:none;fill-rule:nonzero;fill:#472B29;fill-opacity:1;" d="M 396.199219 296.726563 L 380.285156 296.726563 L 380.285156 268.046875 C 380.285156 260.164063 371.699219 254.050781 364.320313 254.050781 C 356.765625 254.050781 347.539063 260.585938 347.539063 268.203125 L 347.539063 296.726563 L 333.363281 296.726563 L 333.363281 267.863281 C 333.363281 251.304688 350.238281 238.941406 365.324219 238.941406 C 381.773438 238.941406 396.199219 252.335938 396.199219 267.59375 Z M 384.035156 292.976563 L 392.449219 292.976563 L 392.449219 267.59375 C 392.449219 254.328125 379.773438 242.691406 365.324219 242.691406 C 352.28125 242.691406 337.113281 253.683594 337.113281 267.863281 L 337.113281 292.976563 L 343.789063 292.976563 L 343.789063 268.203125 C 343.789063 258.121094 354.824219 250.300781 364.320313 250.300781 C 373.625 250.300781 384.035156 257.890625 384.035156 268.046875 Z "/>
<path style=" stroke:none;fill-rule:nonzero;fill:#472B29;fill-opacity:1;" d="M 394.324219 297.351563 C 392.945313 297.351563 391.824219 296.230469 391.824219 294.851563 L 391.824219 267.59375 C 391.824219 254.660156 379.441406 243.316406 365.324219 243.316406 C 352.570313 243.316406 337.738281 254.039063 337.738281 267.863281 L 337.738281 294.851563 C 337.738281 296.230469 336.621094 297.351563 335.238281 297.351563 C 333.859375 297.351563 332.738281 296.230469 332.738281 294.851563 L 332.738281 267.863281 C 332.738281 250.949219 349.941406 238.316406 365.324219 238.316406 C 382.105469 238.316406 396.824219 251.996094 396.824219 267.59375 L 396.824219 294.851563 C 396.824219 296.234375 395.703125 297.351563 394.324219 297.351563 Z "/>
<path style=" stroke:none;fill-rule:nonzero;fill:#78A0CF;fill-opacity:1;" d="M 378.609375 359.15625 L 349.210938 359.15625 C 330.53125 359.15625 315.25 343.875 315.25 325.195313 L 315.25 291.550781 C 315.25 288.585938 317.675781 286.160156 320.640625 286.160156 L 407.183594 286.160156 C 410.148438 286.160156 412.574219 288.585938 412.574219 291.550781 L 412.574219 325.191406 C 412.570313 343.871094 397.289063 359.15625 378.609375 359.15625 Z "/>
<path style=" stroke:none;fill-rule:nonzero;fill:#472B29;fill-opacity:1;" d="M 378.609375 361.65625 L 349.214844 361.65625 C 329.109375 361.65625 312.753906 345.300781 312.753906 325.195313 L 312.753906 291.550781 C 312.753906 287.199219 316.296875 283.664063 320.644531 283.664063 L 407.183594 283.664063 C 411.535156 283.664063 415.074219 287.199219 415.074219 291.550781 L 415.074219 325.195313 C 415.070313 345.296875 398.714844 361.65625 378.609375 361.65625 Z M 320.640625 288.664063 C 319.050781 288.664063 317.75 289.960938 317.75 291.550781 L 317.75 325.195313 C 317.75 342.546875 331.863281 356.65625 349.210938 356.65625 L 378.605469 356.65625 C 395.949219 356.65625 410.066406 342.546875 410.066406 325.195313 L 410.066406 291.550781 C 410.066406 289.960938 408.769531 288.664063 407.175781 288.664063 Z "/>
<path style=" stroke:none;fill-rule:nonzero;fill:#F1BC19;fill-opacity:1;" d="M 316.988281 299.199219 L 410.835938 299.199219 L 410.835938 314.839844 L 316.988281 314.839844 Z "/>
<path style=" stroke:none;fill-rule:nonzero;fill:#472B29;fill-opacity:1;" d="M 412.570313 316.464844 L 315.253906 316.464844 C 314.355469 316.464844 313.628906 315.734375 313.628906 314.839844 C 313.628906 313.945313 314.359375 313.214844 315.253906 313.214844 L 412.570313 313.214844 C 413.46875 313.214844 414.195313 313.945313 414.195313 314.839844 C 414.195313 315.734375 413.46875 316.464844 412.570313 316.464844 Z "/>
<path style=" stroke:none;fill-rule:nonzero;fill:#472B29;fill-opacity:1;" d="M 382.160156 300.824219 L 315.253906 300.824219 C 314.355469 300.824219 313.628906 300.09375 313.628906 299.199219 C 313.628906 298.304688 314.359375 297.574219 315.253906 297.574219 L 382.160156 297.574219 C 383.058594 297.574219 383.785156 298.304688 383.785156 299.199219 C 383.785156 300.09375 383.058594 300.824219 382.160156 300.824219 Z "/>
<path style=" stroke:none;fill-rule:nonzero;fill:#472B29;fill-opacity:1;" d="M 401.273438 300.824219 L 389.109375 300.824219 C 388.210938 300.824219 387.484375 300.09375 387.484375 299.199219 C 387.484375 298.304688 388.214844 297.574219 389.109375 297.574219 L 401.273438 297.574219 C 402.175781 297.574219 402.898438 298.304688 402.898438 299.199219 C 402.898438 300.09375 402.175781 300.824219 401.273438 300.824219 Z "/>
<path style=" stroke:none;fill-rule:nonzero;fill:#472B29;fill-opacity:1;" d="M 411.699219 300.824219 L 406.488281 300.824219 C 405.589844 300.824219 404.863281 300.09375 404.863281 299.199219 C 404.863281 298.304688 405.59375 297.574219 406.488281 297.574219 L 411.699219 297.574219 C 412.601563 297.574219 413.324219 298.304688 413.324219 299.199219 C 413.324219 300.09375 412.601563 300.824219 411.699219 300.824219 Z "/>
<path style=" stroke:none;fill-rule:nonzero;fill:#472B29;fill-opacity:1;" d="M 315.253906 312.628906 C 315.128906 312.628906 315.003906 312.589844 314.894531 312.519531 C 314.609375 312.320313 314.546875 311.929688 314.738281 311.644531 L 323.769531 298.773438 C 323.96875 298.496094 324.359375 298.441406 324.640625 298.625 C 324.925781 298.824219 324.988281 299.214844 324.796875 299.5 L 315.765625 312.371094 C 315.644531 312.535156 315.449219 312.628906 315.253906 312.628906 Z "/>
<path style=" stroke:none;fill-rule:nonzero;fill:#472B29;fill-opacity:1;" d="M 328.71875 314.738281 C 328.59375 314.738281 328.46875 314.699219 328.359375 314.628906 C 328.074219 314.429688 328.011719 314.039063 328.203125 313.753906 L 338.628906 298.890625 C 338.828125 298.605469 339.21875 298.550781 339.5 298.738281 C 339.785156 298.941406 339.851563 299.328125 339.65625 299.613281 L 329.230469 314.480469 C 329.109375 314.644531 328.914063 314.738281 328.71875 314.738281 Z "/>
<path style=" stroke:none;fill-rule:nonzero;fill:#472B29;fill-opacity:1;" d="M 342.046875 314.738281 C 341.921875 314.738281 341.796875 314.699219 341.683594 314.628906 C 341.398438 314.429688 341.335938 314.039063 341.53125 313.753906 L 351.953125 298.890625 C 352.15625 298.605469 352.546875 298.550781 352.824219 298.738281 C 353.109375 298.941406 353.175781 299.328125 352.980469 299.613281 L 342.554688 314.480469 C 342.433594 314.644531 342.238281 314.738281 342.046875 314.738281 Z "/>
<path style=" stroke:none;fill-rule:nonzero;fill:#472B29;fill-opacity:1;" d="M 355.371094 314.738281 C 355.246094 314.738281 355.121094 314.699219 355.011719 314.628906 C 354.726563 314.429688 354.660156 314.039063 354.855469 313.753906 L 365.28125 298.890625 C 365.480469 298.605469 365.871094 298.550781 366.148438 298.738281 C 366.433594 298.941406 366.5 299.328125 366.304688 299.613281 L 355.878906 314.480469 C 355.761719 314.644531 355.566406 314.738281 355.371094 314.738281 Z "/>
<path style=" stroke:none;fill-rule:nonzero;fill:#472B29;fill-opacity:1;" d="M 368.691406 314.738281 C 368.566406 314.738281 368.441406 314.699219 368.328125 314.628906 C 368.046875 314.429688 367.980469 314.039063 368.175781 313.753906 L 378.601563 298.890625 C 378.800781 298.605469 379.191406 298.550781 379.46875 298.738281 C 379.753906 298.941406 379.820313 299.328125 379.625 299.613281 L 369.199219 314.480469 C 369.078125 314.644531 368.886719 314.738281 368.691406 314.738281 Z "/>
<path style=" stroke:none;fill-rule:nonzero;fill:#472B29;fill-opacity:1;" d="M 382.015625 314.738281 C 381.890625 314.738281 381.765625 314.699219 381.65625 314.628906 C 381.371094 314.429688 381.304688 314.039063 381.5 313.753906 L 391.925781 298.890625 C 392.125 298.605469 392.515625 298.550781 392.796875 298.738281 C 393.078125 298.941406 393.144531 299.328125 392.949219 299.613281 L 382.523438 314.480469 C 382.40625 314.644531 382.210938 314.738281 382.015625 314.738281 Z "/>
<path style=" stroke:none;fill-rule:nonzero;fill:#472B29;fill-opacity:1;" d="M 395.339844 314.738281 C 395.214844 314.738281 395.089844 314.699219 394.980469 314.628906 C 394.695313 314.429688 394.628906 314.039063 394.824219 313.753906 L 405.25 298.890625 C 405.453125 298.605469 405.839844 298.550781 406.121094 298.738281 C 406.40625 298.941406 406.46875 299.328125 406.273438 299.613281 L 395.851563 314.480469 C 395.730469 314.644531 395.535156 314.738281 395.339844 314.738281 Z "/>
<path style=" stroke:none;fill-rule:nonzero;fill:#4C6E91;fill-opacity:1;" d="M 369.339844 346.121094 L 366.335938 336.085938 C 366.125 335.511719 365.761719 335.023438 366.273438 334.699219 C 367.835938 333.714844 368.75 331.804688 368.214844 329.726563 C 367.828125 328.214844 366.601563 326.976563 365.09375 326.578125 C 362.09375 325.789063 359.394531 328.039063 359.394531 330.914063 C 359.394531 332.5 360.21875 333.878906 361.453125 334.675781 C 361.984375 335.015625 361.808594 335.410156 361.589844 336.003906 L 358.421875 346.109375 L 369.339844 346.109375 Z "/>
<path style=" stroke:none;fill-rule:nonzero;fill:#472B29;fill-opacity:1;" d="M 369.34375 347.5 L 358.429688 347.5 C 357.996094 347.5 357.578125 347.289063 357.320313 346.941406 C 357.058594 346.589844 356.984375 346.128906 357.113281 345.714844 L 360.28125 335.609375 C 360.28125 335.609375 360.285156 335.585938 360.300781 335.550781 C 358.863281 334.445313 358.019531 332.75 358.019531 330.925781 C 358.019531 329.085938 358.855469 327.390625 360.308594 326.265625 C 361.753906 325.144531 363.625 324.773438 365.445313 325.261719 C 367.425781 325.78125 369.035156 327.398438 369.546875 329.390625 C 370.136719 331.675781 369.339844 334.035156 367.566406 335.46875 L 367.625 335.621094 L 370.65625 345.726563 C 370.78125 346.140625 370.699219 346.59375 370.441406 346.941406 C 370.183594 347.296875 369.773438 347.5 369.34375 347.5 Z M 360.300781 344.746094 L 367.496094 344.746094 L 365.019531 336.484375 C 364.410156 335.066406 364.609375 334.128906 365.539063 333.539063 C 366.710938 332.804688 367.234375 331.445313 366.886719 330.074219 C 366.621094 329.050781 365.761719 328.183594 364.746094 327.914063 C 363.761719 327.671875 362.773438 327.839844 361.988281 328.441406 C 361.214844 329.035156 360.769531 329.945313 360.769531 330.921875 C 360.769531 331.976563 361.304688 332.945313 362.199219 333.523438 C 363.636719 334.449219 363.109375 335.863281 362.914063 336.398438 Z "/>
<path style=" stroke:none;fill-rule:nonzero;fill:#472B29;fill-opacity:1;" d="M 321.589844 315.128906 C 321.464844 315.128906 321.339844 315.089844 321.230469 315.019531 C 320.945313 314.820313 320.878906 314.429688 321.074219 314.144531 L 331.5 299.28125 C 331.699219 299 332.089844 298.945313 332.371094 299.128906 C 332.65625 299.328125 332.71875 299.71875 332.523438 300.003906 L 322.101563 314.871094 C 321.980469 315.035156 321.785156 315.128906 321.589844 315.128906 Z "/>
<path style=" stroke:none;fill-rule:nonzero;fill:#472B29;fill-opacity:1;" d="M 335.238281 315.128906 C 335.113281 315.128906 334.988281 315.089844 334.878906 315.019531 C 334.59375 314.820313 334.53125 314.429688 334.726563 314.144531 L 345.148438 299.28125 C 345.351563 299 345.738281 298.945313 346.019531 299.128906 C 346.304688 299.328125 346.371094 299.71875 346.175781 300.003906 L 335.75 314.871094 C 335.628906 315.035156 335.433594 315.128906 335.238281 315.128906 Z "/>
<path style=" stroke:none;fill-rule:nonzero;fill:#472B29;fill-opacity:1;" d="M 348.539063 314.738281 C 348.414063 314.738281 348.289063 314.699219 348.179688 314.628906 C 347.894531 314.429688 347.828125 314.039063 348.023438 313.753906 L 358.449219 298.890625 C 358.648438 298.605469 359.039063 298.550781 359.320313 298.738281 C 359.605469 298.941406 359.671875 299.328125 359.476563 299.613281 L 349.050781 314.480469 C 348.929688 314.644531 348.734375 314.738281 348.539063 314.738281 Z "/>
<path style=" stroke:none;fill-rule:nonzero;fill:#472B29;fill-opacity:1;" d="M 361.53125 315.128906 C 361.40625 315.128906 361.28125 315.089844 361.171875 315.019531 C 360.886719 314.820313 360.820313 314.429688 361.015625 314.144531 L 371.441406 299.28125 C 371.640625 299 372.023438 298.945313 372.308594 299.128906 C 372.59375 299.328125 372.660156 299.71875 372.464844 300.003906 L 362.039063 314.871094 C 361.921875 315.035156 361.726563 315.128906 361.53125 315.128906 Z "/>
<path style=" stroke:none;fill-rule:nonzero;fill:#472B29;fill-opacity:1;" d="M 375.421875 315.128906 C 375.296875 315.128906 375.171875 315.089844 375.058594 315.019531 C 374.773438 314.820313 374.710938 314.429688 374.90625 314.144531 L 385.328125 299.28125 C 385.53125 299 385.921875 298.945313 386.199219 299.128906 C 386.484375 299.328125 386.550781 299.71875 386.355469 300.003906 L 375.929688 314.871094 C 375.808594 315.035156 375.613281 315.128906 375.421875 315.128906 Z "/>
<path style=" stroke:none;fill-rule:nonzero;fill:#472B29;fill-opacity:1;" d="M 388.238281 315.460938 C 388.113281 315.460938 387.988281 315.421875 387.878906 315.351563 C 387.59375 315.148438 387.53125 314.761719 387.726563 314.476563 L 398.148438 299.609375 C 398.351563 299.328125 398.738281 299.273438 399.019531 299.460938 C 399.304688 299.660156 399.371094 300.050781 399.175781 300.335938 L 388.75 315.199219 C 388.628906 315.371094 388.433594 315.460938 388.238281 315.460938 Z "/>
<path style=" stroke:none;fill-rule:nonzero;fill:#472B29;fill-opacity:1;" d="M 401.671875 315.460938 C 401.546875 315.460938 401.421875 315.421875 401.308594 315.351563 C 401.023438 315.148438 400.960938 314.761719 401.15625 314.476563 L 411.578125 299.609375 C 411.785156 299.328125 412.164063 299.273438 412.449219 299.460938 C 412.734375 299.660156 412.800781 300.050781 412.605469 300.335938 L 402.179688 315.199219 C 402.058594 315.371094 401.863281 315.460938 401.671875 315.460938 Z "/>
<path style=" stroke:none;fill-rule:nonzero;fill:#FDFCEF;fill-opacity:1;" d="M 187.03125 372.683594 C 187.03125 372.683594 240.109375 372.683594 240.433594 372.683594 C 252.695313 372.683594 262.628906 362.75 262.628906 350.488281 C 262.628906 339.796875 255.066406 330.871094 244.996094 328.769531 C 245.109375 327.835938 245.191406 326.886719 245.191406 325.921875 C 245.191406 313.226563 234.898438 302.929688 222.203125 302.929688 C 214.710938 302.929688 208.070313 306.535156 203.875 312.085938 C 202.800781 297.953125 190.179688 287.050781 175.410156 288.855469 C 164.609375 290.175781 155.675781 298.523438 153.691406 309.21875 C 153.054688 312.648438 153.121094 315.980469 153.753906 319.105469 C 150.859375 315.984375 146.738281 314.023438 142.144531 314.023438 C 133.746094 314.023438 126.886719 320.566406 126.34375 328.828125 C 122.53125 327.984375 118.378906 328.039063 114.011719 329.679688 C 105.65625 332.816406 99.703125 340.679688 99.359375 349.59375 C 98.863281 362.261719 108.984375 372.679688 121.535156 372.679688 C 122.488281 372.679688 125.839844 372.679688 126.609375 372.679688 L 172.699219 372.679688 "/>
<path style=" stroke:none;fill-rule:nonzero;fill:#472B29;fill-opacity:1;" d="M 240.433594 375.191406 L 187.03125 375.191406 C 185.648438 375.191406 184.53125 374.070313 184.53125 372.691406 C 184.53125 371.308594 185.648438 370.191406 187.03125 370.191406 L 240.433594 370.191406 C 251.296875 370.191406 260.128906 361.351563 260.128906 350.496094 C 260.128906 341.226563 253.550781 333.109375 244.484375 331.21875 C 243.214844 330.953125 242.355469 329.753906 242.515625 328.460938 C 242.621094 327.625 242.691406 326.78125 242.691406 325.921875 C 242.691406 314.621094 233.5 305.429688 222.199219 305.429688 C 215.738281 305.429688 209.789063 308.40625 205.863281 313.59375 C 205.238281 314.425781 204.171875 314.78125 203.164063 314.484375 C 202.171875 314.191406 201.453125 313.316406 201.378906 312.28125 C 200.910156 306.089844 197.875 300.273438 193.058594 296.328125 C 188.195313 292.34375 182.03125 290.585938 175.703125 291.34375 C 165.96875 292.539063 157.925781 300.078125 156.140625 309.691406 C 155.578125 312.691406 155.601563 315.695313 156.195313 318.621094 C 156.414063 319.71875 155.886719 320.828125 154.886719 321.339844 C 153.886719 321.859375 152.675781 321.640625 151.910156 320.820313 C 149.34375 318.058594 145.875 316.539063 142.136719 316.539063 C 135.128906 316.539063 129.289063 322.019531 128.828125 329.003906 C 128.78125 329.734375 128.421875 330.40625 127.835938 330.839844 C 127.253906 331.285156 126.511719 331.449219 125.796875 331.285156 C 122.015625 330.453125 118.445313 330.710938 114.875 332.035156 C 107.386719 334.84375 102.148438 341.949219 101.84375 349.710938 C 101.636719 355.125 103.578125 360.253906 107.328125 364.15625 C 111.078125 368.054688 116.121094 370.199219 121.523438 370.199219 L 172.699219 370.199219 C 174.078125 370.199219 175.199219 371.320313 175.199219 372.699219 C 175.199219 374.078125 174.078125 375.199219 172.699219 375.199219 L 121.535156 375.199219 C 114.753906 375.199219 108.433594 372.511719 103.730469 367.621094 C 99.035156 362.730469 96.589844 356.300781 96.855469 349.515625 C 97.234375 339.769531 103.773438 330.863281 113.125 327.355469 C 116.71875 326 120.441406 325.519531 124.230469 325.960938 C 126.039063 317.683594 133.441406 311.535156 142.140625 311.535156 C 145.160156 311.535156 148.109375 312.289063 150.738281 313.695313 C 150.761719 312.058594 150.921875 310.421875 151.226563 308.78125 C 153.40625 297.050781 163.21875 287.839844 175.09375 286.386719 C 182.769531 285.429688 190.296875 287.601563 196.226563 292.464844 C 200.71875 296.148438 203.941406 301.175781 205.460938 306.71875 C 210.054688 302.679688 215.933594 300.441406 222.195313 300.441406 C 236.25 300.441406 247.683594 311.875 247.683594 325.929688 C 247.683594 326.25 247.679688 326.570313 247.664063 326.890625 C 257.90625 330.03125 265.125 339.625 265.125 350.503906 C 265.128906 364.109375 254.050781 375.191406 240.433594 375.191406 Z "/>
<path style=" stroke:none;fill-rule:nonzero;fill:#FDFCEF;fill-opacity:1;" d="M 174.171875 323.796875 C 165.960938 323.253906 158.894531 328.925781 158.386719 336.460938 C 158.320313 337.394531 158.363281 338.316406 158.5 339.210938 C 156.914063 337.421875 154.570313 336.210938 151.878906 336.03125 C 146.953125 335.703125 142.699219 338.960938 142.085938 343.386719 C 141.191406 343.140625 140.253906 342.976563 139.285156 342.910156 C 132.101563 342.441406 125.914063 347.398438 125.476563 353.988281 "/>
<path style=" stroke:none;fill-rule:nonzero;fill:#472B29;fill-opacity:1;" d="M 125.476563 355.238281 C 125.449219 355.238281 125.421875 355.238281 125.390625 355.234375 C 124.699219 355.191406 124.179688 354.59375 124.226563 353.90625 C 124.714844 346.640625 131.574219 341.128906 139.359375 341.660156 C 139.941406 341.695313 140.53125 341.769531 141.128906 341.878906 C 142.425781 337.496094 146.945313 334.394531 151.960938 334.78125 C 153.84375 334.898438 155.609375 335.476563 157.136719 336.425781 C 157.136719 336.410156 157.136719 336.390625 157.136719 336.371094 C 157.683594 328.160156 165.363281 321.878906 174.246094 322.539063 C 174.933594 322.585938 175.453125 323.179688 175.410156 323.871094 C 175.363281 324.554688 174.761719 325.164063 174.078125 325.03125 C 166.523438 324.539063 160.085938 329.699219 159.625 336.535156 C 159.570313 337.363281 159.605469 338.199219 159.730469 339.011719 C 159.816406 339.554688 159.523438 340.101563 159.023438 340.335938 C 158.535156 340.566406 157.929688 340.449219 157.558594 340.03125 C 156.136719 338.425781 154.035156 337.421875 151.789063 337.265625 C 147.535156 337.035156 143.84375 339.75 143.316406 343.546875 C 143.265625 343.898438 143.066406 344.21875 142.769531 344.414063 C 142.46875 344.613281 142.105469 344.679688 141.753906 344.578125 C 140.863281 344.34375 140.03125 344.203125 139.195313 344.144531 C 132.640625 343.789063 127.109375 348.171875 126.714844 354.066406 C 126.679688 354.734375 126.128906 355.238281 125.476563 355.238281 Z "/>
<path style=" stroke:none;fill-rule:nonzero;fill:#FDFCEF;fill-opacity:1;" d="M 249.421875 331.371094 C 241.703125 327.734375 232.785156 330.304688 229.496094 337.121094 C 229.085938 337.964844 228.785156 338.839844 228.585938 339.726563 "/>
<path style=" stroke:none;fill-rule:nonzero;fill:#472B29;fill-opacity:1;" d="M 228.578125 340.976563 C 228.488281 340.976563 228.394531 340.964844 228.300781 340.945313 C 227.625 340.789063 227.203125 340.121094 227.359375 339.445313 C 227.589844 338.445313 227.929688 337.476563 228.363281 336.574219 C 231.949219 329.164063 241.636719 326.308594 249.949219 330.234375 C 250.574219 330.535156 250.84375 331.273438 250.550781 331.898438 C 250.253906 332.523438 249.503906 332.789063 248.886719 332.5 C 241.800781 329.148438 233.605469 331.476563 230.613281 337.660156 C 230.261719 338.394531 229.984375 339.183594 229.796875 340 C 229.664063 340.585938 229.148438 340.976563 228.578125 340.976563 Z "/>
</g>
</svg>
